<svg width="518" height="578" viewBox="0 0 518 578" fill="none" xmlns="http://www.w3.org/2000/svg">
<path d="M215.083 280.277C212.322 280.277 210.083 282.516 210.083 285.277C210.083 288.039 212.322 290.277 215.083 290.277V280.277ZM215.083 290.277H337.902V280.277H215.083V290.277ZM350.902 277.277V161.201H340.902V277.277H350.902ZM337.902 290.277C345.082 290.277 350.902 284.457 350.902 277.277H340.902C340.902 278.934 339.559 280.277 337.902 280.277V290.277Z" fill="#0C68F4"/>
<path d="M173.417 334.048C170.656 334.048 168.417 336.287 168.417 339.048C168.417 341.809 170.656 344.048 173.417 344.048V334.048ZM173.417 344.048H467.515V334.048H173.417V344.048ZM480.515 331.048V285.102H470.515V331.048H480.515ZM467.515 344.048C474.695 344.048 480.515 338.228 480.515 331.048H470.515C470.515 332.705 469.172 334.048 467.515 334.048V344.048Z" fill="#0C68F4"/>
<path d="M165.742 386.459C162.98 386.459 160.742 388.698 160.742 391.459C160.742 394.22 162.98 396.459 165.742 396.459V386.459ZM165.742 396.459H462.445V386.459H165.742V396.459Z" fill="#0C68F4"/>
<path d="M208.504 439.089C205.742 439.089 203.504 441.328 203.504 444.089C203.504 446.851 205.742 449.089 208.504 449.089V439.089ZM208.504 449.089H355.21V439.089H208.504V449.089ZM358.21 452.089V503.522H368.21V452.089H358.21ZM371.21 516.522H402.71V506.522H371.21V516.522ZM358.21 503.522C358.21 510.702 364.031 516.522 371.21 516.522V506.522C369.554 506.522 368.21 505.179 368.21 503.522H358.21ZM355.21 449.089C356.867 449.089 358.21 450.433 358.21 452.089H368.21C368.21 444.91 362.39 439.089 355.21 439.089V449.089Z" fill="#0C68F4"/>
<mask id="path-5-inside-1_717_689" fill="white">
<path d="M374.794 135.796C374.794 151.438 362.114 164.118 346.472 164.118C330.83 164.118 318.15 151.438 318.15 135.796C318.15 120.154 330.83 107.474 346.472 107.474C362.114 107.474 374.794 120.154 374.794 135.796ZM329.479 135.796C329.479 145.181 337.087 152.789 346.472 152.789C355.857 152.789 363.465 145.181 363.465 135.796C363.465 126.411 355.857 118.803 346.472 118.803C337.087 118.803 329.479 126.411 329.479 135.796Z"/>
</mask>
<path d="M374.794 135.796C374.794 151.438 362.114 164.118 346.472 164.118C330.83 164.118 318.15 151.438 318.15 135.796C318.15 120.154 330.83 107.474 346.472 107.474C362.114 107.474 374.794 120.154 374.794 135.796ZM329.479 135.796C329.479 145.181 337.087 152.789 346.472 152.789C355.857 152.789 363.465 145.181 363.465 135.796C363.465 126.411 355.857 118.803 346.472 118.803C337.087 118.803 329.479 126.411 329.479 135.796Z" fill="#F45E0C" stroke="#F45E0C" stroke-width="4.38586" mask="url(#path-5-inside-1_717_689)"/>
<mask id="path-6-inside-2_717_689" fill="white">
<path d="M504.177 257.756C504.177 273.398 491.497 286.078 475.855 286.078C460.214 286.078 447.534 273.398 447.534 257.756C447.534 242.114 460.214 229.434 475.855 229.434C491.497 229.434 504.177 242.114 504.177 257.756ZM458.862 257.756C458.862 267.141 466.47 274.749 475.855 274.749C485.24 274.749 492.848 267.141 492.848 257.756C492.848 248.371 485.24 240.763 475.855 240.763C466.47 240.763 458.862 248.371 458.862 257.756Z"/>
</mask>
<path d="M504.177 257.756C504.177 273.398 491.497 286.078 475.855 286.078C460.214 286.078 447.534 273.398 447.534 257.756C447.534 242.114 460.214 229.434 475.855 229.434C491.497 229.434 504.177 242.114 504.177 257.756ZM458.862 257.756C458.862 267.141 466.47 274.749 475.855 274.749C485.24 274.749 492.848 267.141 492.848 257.756C492.848 248.371 485.24 240.763 475.855 240.763C466.47 240.763 458.862 248.371 458.862 257.756Z" fill="#F45E0C" stroke="#F45E0C" stroke-width="4.38586" mask="url(#path-6-inside-2_717_689)"/>
<mask id="path-7-inside-3_717_689" fill="white">
<path d="M517.334 390.176C517.334 405.818 504.654 418.498 489.013 418.498C473.371 418.498 460.691 405.818 460.691 390.176C460.691 374.535 473.371 361.854 489.013 361.854C504.654 361.854 517.334 374.535 517.334 390.176ZM472.02 390.176C472.02 399.561 479.628 407.169 489.013 407.169C498.398 407.169 506.006 399.561 506.006 390.176C506.006 380.791 498.398 373.183 489.013 373.183C479.628 373.183 472.02 380.791 472.02 390.176Z"/>
</mask>
<path d="M517.334 390.176C517.334 405.818 504.654 418.498 489.013 418.498C473.371 418.498 460.691 405.818 460.691 390.176C460.691 374.535 473.371 361.854 489.013 361.854C504.654 361.854 517.334 374.535 517.334 390.176ZM472.02 390.176C472.02 399.561 479.628 407.169 489.013 407.169C498.398 407.169 506.006 399.561 506.006 390.176C506.006 380.791 498.398 373.183 489.013 373.183C479.628 373.183 472.02 380.791 472.02 390.176Z" fill="#F45E0C" stroke="#F45E0C" stroke-width="4.38586" mask="url(#path-7-inside-3_717_689)"/>
<mask id="path-8-inside-4_717_689" fill="white">
<path d="M458.126 510.788C458.126 526.429 445.446 539.109 429.804 539.109C414.162 539.109 401.482 526.429 401.482 510.788C401.482 495.146 414.162 482.466 429.804 482.466C445.446 482.466 458.126 495.146 458.126 510.788ZM412.811 510.788C412.811 520.173 420.419 527.781 429.804 527.781C439.189 527.781 446.797 520.173 446.797 510.788C446.797 501.403 439.189 493.795 429.804 493.795C420.419 493.795 412.811 501.403 412.811 510.788Z"/>
</mask>
<path d="M458.126 510.788C458.126 526.429 445.446 539.109 429.804 539.109C414.162 539.109 401.482 526.429 401.482 510.788C401.482 495.146 414.162 482.466 429.804 482.466C445.446 482.466 458.126 495.146 458.126 510.788ZM412.811 510.788C412.811 520.173 420.419 527.781 429.804 527.781C439.189 527.781 446.797 520.173 446.797 510.788C446.797 501.403 439.189 493.795 429.804 493.795C420.419 493.795 412.811 501.403 412.811 510.788Z" fill="#F45E0C" stroke="#F45E0C" stroke-width="4.38586" mask="url(#path-8-inside-4_717_689)"/>
<path d="M291.578 539.482H39.6753C26.4205 539.482 15.6753 528.737 15.6753 515.482V190.629C15.6753 182.53 19.7607 174.976 26.5395 170.543L242.985 28.9929C250.476 24.0939 260.071 23.7706 267.875 28.1542L417.175 112.021" stroke="#0C68F4" stroke-width="16" stroke-linecap="round"/>
</svg>
